<?xml version="1.0" ?><svg viewBox="0 0 64 64" xmlns="http://www.w3.org/2000/svg"><title/><g id="Mail"><path d="M62,12a.9275.9275,0,0,0-.0251-.1243.7565.7565,0,0,0-.1329-.3827.95.95,0,0,0-.0583-.1146c-.0124-.0156-.0308-.0223-.0439-.0369a1.1348,1.1348,0,0,0-.6846-.33C61.0359,11.01,61.02,11,61,11H3c-.02,0-.0372.01-.0571.0115a.9871.9871,0,0,0-.1961.04.9863.9863,0,0,0-.1794.0567.9837.9837,0,0,0-.1481.1.9746.9746,0,0,0-.1592.1339c-.0132.0146-.0314.0213-.0438.0368a.95.95,0,0,0-.0583.1146.7565.7565,0,0,0-.1329.3827A.9275.9275,0,0,0,2,12V52c0,.0229.0115.0422.0131.0648a.8641.8641,0,0,0,.2027.5279.9678.9678,0,0,0,.135.1534c.0172.0151.0257.0362.0442.05a.9616.9616,0,0,0,.139.0732.9493.9493,0,0,0,.1116.0588A.9936.9936,0,0,0,2.999,53H61.001a.9936.9936,0,0,0,.3534-.0716.9493.9493,0,0,0,.1116-.0588.9616.9616,0,0,0,.139-.0732c.0185-.0141.027-.0352.0442-.05a1.0935,1.0935,0,0,0,.3377-.6813C61.9885,52.0422,62,52.0229,62,52ZM4,14.07,20.5786,27.2183,4,49.0314Zm37.441,12.166c-.005.0037-.0112.0041-.0162.0079s-.0087.0119-.0146.0166L32,33.7236,22.59,26.26c-.0059-.0047-.0084-.0119-.0146-.0166s-.0112-.0042-.0162-.0079L5.8705,13H58.13ZM22.1461,28.4615l9.2323,7.3222a1.0013,1.0013,0,0,0,1.2432,0l9.2323-7.3222L58.9838,51H5.0162Zm21.2753-1.2432L60,14.07V49.0314Z"/></g></svg>